<svg width="42" height="42" viewBox="0 0 42 42" fill="none" xmlns="http://www.w3.org/2000/svg">
    <g clip-path="url(#clip0_304_1008)">
        <path d="M41.0961 6.28357C38.731 5.38704 36.0101 4.60956 33.2279 4.03523C27.8755 2.93014 22.6456 2.65252 19.1034 3.27407L20.0767 1.77494C20.4222 1.24268 20.2707 0.530924 19.7386 0.185388C19.2062 -0.160148 18.4947 -0.00869569 18.149 0.523455L15.6462 4.37882C15.4802 4.63449 15.4227 4.94556 15.4861 5.24363C15.5495 5.54171 15.7287 5.80244 15.9844 5.96837L19.8397 8.47112C20.0331 8.59661 20.2498 8.65647 20.4643 8.65647C20.8405 8.65647 21.2091 8.47204 21.4293 8.13294C21.7748 7.60068 21.6234 6.88904 21.0912 6.54339L19.5327 5.53171C22.7925 4.96314 27.6906 5.23846 32.7636 6.28587C35.4286 6.83606 38.0283 7.57838 40.2818 8.43251C40.4158 8.4833 40.5535 8.50744 40.6888 8.50744C41.1526 8.50744 41.5895 8.22464 41.7635 7.76523C41.9884 7.17195 41.6896 6.50857 41.0961 6.28357Z" fill="#44937D"/>
        <path d="M35.526 12.9104C34.5806 11.4647 32.9807 10.5998 31.2482 10.5998C30.2543 10.5998 29.2882 10.888 28.4544 11.4331C27.9192 11.783 27.4442 12.2402 27.0613 12.7635C26.2981 12.3237 25.4222 12.0833 24.5098 12.0833C23.5178 12.0833 22.5531 12.3711 21.7202 12.9158C21.1291 13.3021 20.6391 13.7822 20.2592 14.319C19.5173 13.9118 18.6737 13.6897 17.7961 13.6897C16.8022 13.6896 15.8359 13.9778 15.0019 14.5232C14.5932 14.7904 14.2301 15.1095 13.9197 15.4701L13.6199 15.0108L10.7156 10.562L9.71133 9.02355C9.55206 8.77982 9.44427 8.61458 9.36682 8.49795C8.58233 7.15097 7.13308 6.34935 5.47389 6.34912C4.42809 6.34901 3.36356 6.66846 2.47634 7.24864C1.33413 7.99544 0.550781 9.14259 0.271204 10.4788C-0.00848852 11.8148 0.249026 13.1799 0.996059 14.3223C1.07178 14.438 6.15163 22.2077 9.52103 27.3608C8.29069 28.9175 7.85093 31.2801 9.14953 33.3934C10.7688 36.029 12.3113 37.8938 14.0038 39.2615C16.252 41.0786 18.7995 41.9999 21.5753 41.9999C25.0149 41.9999 28.7828 40.6294 33.0946 37.8102C37.9692 34.623 40.6369 30.8319 41.0236 26.5423C41.2953 23.5295 40.3752 20.3103 38.3629 17.2326L35.526 12.9104ZM31.8368 35.8869C27.6878 38.5995 24.3418 39.7018 21.5751 39.7018C16.6901 39.7018 13.611 36.2654 11.1075 32.1903C10.1615 30.6508 10.8774 28.9083 11.9397 28.2138L13.7522 30.9859C13.8764 31.1758 14.0125 31.2275 14.1224 31.2275C14.2142 31.2275 14.2876 31.1914 14.3205 31.17C14.3928 31.1228 14.6007 30.9305 14.3726 30.5817C14.1524 30.2452 2.91943 13.0648 2.91943 13.0648C2.06955 11.765 2.43416 10.0221 3.73414 9.17236C4.25101 8.8344 4.87475 8.64756 5.47366 8.64756C6.25654 8.64756 6.99668 8.96701 7.39829 9.68543C7.40186 9.68934 13.043 18.332 14.4312 20.4579C14.434 20.4624 14.4354 20.4674 14.4384 20.4718L14.7288 20.916C14.8167 21.0503 14.9631 21.1233 15.1126 21.1233C15.1985 21.1233 15.2855 21.0991 15.3629 21.0486C15.5745 20.9102 15.6337 20.6264 15.4955 20.4147L15.4203 20.2999C14.6032 19.0044 14.9727 17.2884 16.2597 16.4469C16.7345 16.1364 17.2681 15.988 17.796 15.988C18.7133 15.9882 19.6128 16.4365 20.1523 17.2617L21.2687 18.9648C21.3552 19.0972 21.4994 19.1691 21.6465 19.1691C21.7311 19.1691 21.8167 19.1453 21.8928 19.0956C22.1011 18.9593 22.1596 18.6798 22.0234 18.4714L21.9587 18.3744C21.1851 17.1909 21.7948 15.613 22.9779 14.8396C23.4517 14.5297 23.9838 14.3817 24.5098 14.3818C25.4267 14.3818 26.3254 14.8316 26.8655 15.6576L27.9979 17.3796C28.0821 17.5084 28.2225 17.5784 28.3658 17.5784C28.448 17.5784 28.5314 17.5552 28.6055 17.5068C28.8082 17.3742 28.8652 17.1022 28.7325 16.8994L28.6453 16.7689C27.9415 15.6926 28.5665 14.106 29.7118 13.3572C30.1865 13.0468 30.7202 12.8984 31.248 12.8984C32.1653 12.8984 33.0648 13.3468 33.6044 14.1719L36.439 18.4911C39.0689 22.5123 41.4648 29.5918 31.8368 35.8869Z" fill="#44937D"/>
    </g>
    <defs>
        <clipPath id="clip0_304_1008">
            <rect width="42" height="42" fill="white"/>
        </clipPath>
    </defs>
</svg>
