<svg width="200" height="67" viewBox="0 0 200 67" fill="none" xmlns="http://www.w3.org/2000/svg">
    <path d="M21.736 45.16C20.8613 45.16 20.056 45.0213 19.32 44.744C18.5947 44.456 17.96 44.056 17.416 43.544C16.872 43.0213 16.4507 42.408 16.152 41.704C15.8533 41 15.704 40.232 15.704 39.4C15.704 38.568 15.8533 37.8 16.152 37.096C16.4507 36.392 16.872 35.784 17.416 35.272C17.9707 34.7493 18.616 34.3493 19.352 34.072C20.088 33.784 20.8933 33.64 21.768 33.64C22.7173 33.64 23.5707 33.7947 24.328 34.104C25.096 34.4133 25.7413 34.8667 26.264 35.464L24.952 36.744C24.5147 36.3067 24.04 35.9867 23.528 35.784C23.0267 35.5707 22.472 35.464 21.864 35.464C21.2773 35.464 20.7333 35.56 20.232 35.752C19.7307 35.944 19.2987 36.216 18.936 36.568C18.5733 36.92 18.2907 37.336 18.088 37.816C17.896 38.296 17.8 38.824 17.8 39.4C17.8 39.9653 17.896 40.488 18.088 40.968C18.2907 41.448 18.5733 41.8693 18.936 42.232C19.2987 42.584 19.7253 42.856 20.216 43.048C20.7067 43.24 21.2507 43.336 21.848 43.336C22.4027 43.336 22.936 43.2507 23.448 43.08C23.9707 42.8987 24.4667 42.6 24.936 42.184L26.12 43.736C25.5333 44.2053 24.8507 44.5627 24.072 44.808C23.304 45.0427 22.5253 45.16 21.736 45.16ZM24.152 43.464V39.272H26.12V43.736L24.152 43.464ZM30.7834 38.456H36.3514V40.168H30.7834V38.456ZM30.9434 43.256H37.2634V45H28.8634V33.8H37.0394V35.544H30.9434V43.256ZM41.8541 45V35.56H38.1421V33.8H47.6461V35.56H43.9341V45H41.8541ZM52.045 45L57.085 33.8H59.133L64.189 45H62.013L57.677 34.904H58.509L54.189 45H52.045ZM54.365 42.408L54.925 40.776H60.973L61.533 42.408H54.365ZM75.2193 45.16C74.3659 45.16 73.5713 45.0213 72.8353 44.744C72.1099 44.456 71.4753 44.056 70.9313 43.544C70.3979 43.0213 69.9819 42.408 69.6833 41.704C69.3846 41 69.2353 40.232 69.2353 39.4C69.2353 38.568 69.3846 37.8 69.6833 37.096C69.9819 36.392 70.4033 35.784 70.9473 35.272C71.4913 34.7493 72.1259 34.3493 72.8513 34.072C73.5766 33.784 74.3713 33.64 75.2353 33.64C76.1526 33.64 76.9899 33.8 77.7473 34.12C78.5046 34.4293 79.1446 34.8933 79.6673 35.512L78.3233 36.776C77.9179 36.3387 77.4646 36.0133 76.9633 35.8C76.4619 35.576 75.9179 35.464 75.3313 35.464C74.7446 35.464 74.2059 35.56 73.7153 35.752C73.2353 35.944 72.8139 36.216 72.4513 36.568C72.0993 36.92 71.8219 37.336 71.6193 37.816C71.4273 38.296 71.3313 38.824 71.3313 39.4C71.3313 39.976 71.4273 40.504 71.6193 40.984C71.8219 41.464 72.0993 41.88 72.4513 42.232C72.8139 42.584 73.2353 42.856 73.7153 43.048C74.2059 43.24 74.7446 43.336 75.3313 43.336C75.9179 43.336 76.4619 43.2293 76.9633 43.016C77.4646 42.792 77.9179 42.456 78.3233 42.008L79.6673 43.288C79.1446 43.896 78.5046 44.36 77.7473 44.68C76.9899 45 76.1473 45.16 75.2193 45.16ZM86.6739 45.16C85.7992 45.16 84.9939 45.016 84.2579 44.728C83.5219 44.44 82.8819 44.04 82.3379 43.528C81.7939 43.0053 81.3725 42.3973 81.0739 41.704C80.7752 41 80.6259 40.232 80.6259 39.4C80.6259 38.568 80.7752 37.8053 81.0739 37.112C81.3725 36.408 81.7939 35.8 82.3379 35.288C82.8819 34.7653 83.5219 34.36 84.2579 34.072C84.9939 33.784 85.7939 33.64 86.6579 33.64C87.5325 33.64 88.3325 33.784 89.0579 34.072C89.7939 34.36 90.4339 34.7653 90.9779 35.288C91.5219 35.8 91.9432 36.408 92.2419 37.112C92.5405 37.8053 92.6899 38.568 92.6899 39.4C92.6899 40.232 92.5405 41 92.2419 41.704C91.9432 42.408 91.5219 43.016 90.9779 43.528C90.4339 44.04 89.7939 44.44 89.0579 44.728C88.3325 45.016 87.5379 45.16 86.6739 45.16ZM86.6579 43.336C87.2232 43.336 87.7459 43.24 88.2259 43.048C88.7059 42.856 89.1219 42.584 89.4739 42.232C89.8259 41.8693 90.0979 41.4533 90.2899 40.984C90.4925 40.504 90.5939 39.976 90.5939 39.4C90.5939 38.824 90.4925 38.3013 90.2899 37.832C90.0979 37.352 89.8259 36.936 89.4739 36.584C89.1219 36.2213 88.7059 35.944 88.2259 35.752C87.7459 35.56 87.2232 35.464 86.6579 35.464C86.0925 35.464 85.5699 35.56 85.0899 35.752C84.6205 35.944 84.2045 36.2213 83.8419 36.584C83.4899 36.936 83.2125 37.352 83.0099 37.832C82.8179 38.3013 82.7219 38.824 82.7219 39.4C82.7219 39.9653 82.8179 40.488 83.0099 40.968C83.2125 41.448 83.4899 41.8693 83.8419 42.232C84.1939 42.584 84.6099 42.856 85.0899 43.048C85.5699 43.24 86.0925 43.336 86.6579 43.336ZM94.8946 45V33.8H96.6066L103.631 42.424H102.783V33.8H104.847V45H103.135L96.1106 36.376H96.9586V45H94.8946ZM111.32 45.16C110.445 45.16 109.608 45.0373 108.808 44.792C108.008 44.536 107.373 44.2107 106.904 43.816L107.624 42.2C108.072 42.552 108.626 42.8453 109.288 43.08C109.949 43.3147 110.626 43.432 111.32 43.432C111.906 43.432 112.381 43.368 112.744 43.24C113.106 43.112 113.373 42.9413 113.544 42.728C113.714 42.504 113.8 42.2533 113.8 41.976C113.8 41.6347 113.677 41.3627 113.432 41.16C113.186 40.9467 112.866 40.7813 112.472 40.664C112.088 40.536 111.656 40.4187 111.176 40.312C110.706 40.2053 110.232 40.0827 109.752 39.944C109.282 39.7947 108.85 39.608 108.456 39.384C108.072 39.1493 107.757 38.84 107.512 38.456C107.266 38.072 107.144 37.5813 107.144 36.984C107.144 36.376 107.304 35.8213 107.624 35.32C107.954 34.808 108.45 34.4027 109.112 34.104C109.784 33.7947 110.632 33.64 111.656 33.64C112.328 33.64 112.994 33.7253 113.656 33.896C114.317 34.0667 114.893 34.312 115.384 34.632L114.728 36.248C114.226 35.9493 113.709 35.7307 113.176 35.592C112.642 35.4427 112.13 35.368 111.64 35.368C111.064 35.368 110.594 35.4373 110.232 35.576C109.88 35.7147 109.618 35.896 109.448 36.12C109.288 36.344 109.208 36.6 109.208 36.888C109.208 37.2293 109.325 37.5067 109.56 37.72C109.805 37.9227 110.12 38.0827 110.504 38.2C110.898 38.3173 111.336 38.4347 111.816 38.552C112.296 38.6587 112.77 38.7813 113.24 38.92C113.72 39.0587 114.152 39.24 114.536 39.464C114.93 39.688 115.245 39.992 115.48 40.376C115.725 40.76 115.848 41.2453 115.848 41.832C115.848 42.4293 115.682 42.984 115.352 43.496C115.032 43.9973 114.536 44.4027 113.864 44.712C113.192 45.0107 112.344 45.16 111.32 45.16ZM122.726 45.16C121.19 45.16 119.985 44.728 119.11 43.864C118.246 43 117.814 41.752 117.814 40.12V33.8H119.894V40.04C119.894 41.192 120.14 42.0293 120.63 42.552C121.132 43.0747 121.836 43.336 122.742 43.336C123.649 43.336 124.348 43.0747 124.838 42.552C125.329 42.0293 125.574 41.192 125.574 40.04V33.8H127.622V40.12C127.622 41.752 127.185 43 126.31 43.864C125.446 44.728 124.252 45.16 122.726 45.16ZM130.535 45V33.8H132.615V43.24H138.471V45H130.535ZM141.339 45V35.56H137.627V33.8H147.131V35.56H143.419V45H141.339ZM146.545 45L151.585 33.8H153.633L158.689 45H156.513L152.177 34.904H153.009L148.689 45H146.545ZM148.865 42.408L149.425 40.776H155.473L156.033 42.408H148.865ZM161.823 45V35.56H158.111V33.8H167.615V35.56H163.903V45H161.823ZM169.176 45V33.8H171.256V45H169.176ZM179.533 45.16C178.659 45.16 177.853 45.016 177.117 44.728C176.381 44.44 175.741 44.04 175.197 43.528C174.653 43.0053 174.232 42.3973 173.933 41.704C173.635 41 173.485 40.232 173.485 39.4C173.485 38.568 173.635 37.8053 173.933 37.112C174.232 36.408 174.653 35.8 175.197 35.288C175.741 34.7653 176.381 34.36 177.117 34.072C177.853 33.784 178.653 33.64 179.517 33.64C180.392 33.64 181.192 33.784 181.917 34.072C182.653 34.36 183.293 34.7653 183.837 35.288C184.381 35.8 184.803 36.408 185.101 37.112C185.4 37.8053 185.549 38.568 185.549 39.4C185.549 40.232 185.4 41 185.101 41.704C184.803 42.408 184.381 43.016 183.837 43.528C183.293 44.04 182.653 44.44 181.917 44.728C181.192 45.016 180.397 45.16 179.533 45.16ZM179.517 43.336C180.083 43.336 180.605 43.24 181.085 43.048C181.565 42.856 181.981 42.584 182.333 42.232C182.685 41.8693 182.957 41.4533 183.149 40.984C183.352 40.504 183.453 39.976 183.453 39.4C183.453 38.824 183.352 38.3013 183.149 37.832C182.957 37.352 182.685 36.936 182.333 36.584C181.981 36.2213 181.565 35.944 181.085 35.752C180.605 35.56 180.083 35.464 179.517 35.464C178.952 35.464 178.429 35.56 177.949 35.752C177.48 35.944 177.064 36.2213 176.701 36.584C176.349 36.936 176.072 37.352 175.869 37.832C175.677 38.3013 175.581 38.824 175.581 39.4C175.581 39.9653 175.677 40.488 175.869 40.968C176.072 41.448 176.349 41.8693 176.701 42.232C177.053 42.584 177.469 42.856 177.949 43.048C178.429 43.24 178.952 43.336 179.517 43.336ZM187.754 45V33.8H189.466L196.49 42.424H195.642V33.8H197.706V45H195.994L188.97 36.376H189.818V45H187.754Z" fill="url(#paint0_linear_262_5748)"/>
    <path d="M23.1 12H15C7.26801 12 1 18.268 1 26V52C1 59.732 7.26801 66 15 66H159.25C165.739 66 171 60.7393 171 54.25V54.25M77.925 12H158.8C165.538 12 171 17.4621 171 24.2V24.2" stroke="#51C14F" stroke-width="2" stroke-linecap="round"/>
    <path d="M57.4097 13C57.1897 13 56.9597 12.93 56.7397 12.88C56.2945 12.7805 55.8568 12.6501 55.4297 12.49C54.9658 12.3212 54.4558 12.33 53.998 12.5146C53.5402 12.6992 53.1668 13.0466 52.9497 13.49L52.7297 13.95C51.7585 13.3992 50.8613 12.7271 50.0597 11.95C49.2825 11.1484 48.6105 10.2512 48.0597 9.28L48.5197 9.07C48.963 8.85292 49.3105 8.47953 49.4951 8.02169C49.6797 7.56385 49.6885 7.05391 49.5197 6.59C49.3609 6.15903 49.2306 5.71808 49.1297 5.27C49.0797 5.05 49.0397 4.82 49.0097 4.6C48.8882 3.89562 48.5193 3.25774 47.9693 2.80124C47.4193 2.34474 46.7244 2.09961 46.0097 2.11H42.9997C42.5769 2.10945 42.1588 2.19825 41.7728 2.37058C41.3868 2.54292 41.0415 2.7949 40.7597 3.11C40.472 3.43365 40.2578 3.81575 40.1318 4.23004C40.0058 4.64432 39.9709 5.08098 40.0297 5.51C40.5733 9.67214 42.4749 13.5387 45.4397 16.51C48.411 19.4748 52.2775 21.3764 56.4397 21.92C56.5695 21.9299 56.6999 21.9299 56.8297 21.92C57.5671 21.9211 58.2791 21.6505 58.8297 21.16C59.1448 20.8782 59.3968 20.5329 59.5691 20.1469C59.7414 19.7609 59.8302 19.3428 59.8297 18.92V15.92C59.8243 15.229 59.5805 14.5611 59.1396 14.0291C58.6987 13.4971 58.0876 13.1336 57.4097 13ZM57.8997 19C57.8994 19.1395 57.8698 19.2775 57.813 19.4049C57.7562 19.5324 57.6733 19.6465 57.5697 19.74C57.4601 19.8399 57.3297 19.9141 57.1878 19.9573C57.046 20.0006 56.8963 20.0117 56.7497 19.99C53.018 19.5026 49.5499 17.802 46.8797 15.15C44.2072 12.4775 42.4917 8.99737 41.9997 5.25C41.978 5.10333 41.9891 4.95367 42.0324 4.81185C42.0756 4.67003 42.1498 4.5396 42.2497 4.43C42.3443 4.32515 42.4601 4.24154 42.5893 4.18466C42.7186 4.12778 42.8585 4.09892 42.9997 4.1H45.9997C46.2308 4.09435 46.4568 4.16898 46.6391 4.3112C46.8215 4.45341 46.9489 4.65442 46.9997 4.88C46.9997 5.15 47.0897 5.43 47.1497 5.7C47.2653 6.22386 47.419 6.73857 47.6097 7.24L46.2097 7.9C45.969 8.01046 45.782 8.21185 45.6897 8.46C45.5897 8.70346 45.5897 8.97654 45.6897 9.22C47.1289 12.3028 49.6069 14.7808 52.6897 16.22C52.9331 16.32 53.2062 16.32 53.4497 16.22C53.6978 16.1276 53.8992 15.9406 54.0097 15.7L54.6397 14.3C55.1556 14.4881 55.6834 14.6418 56.2197 14.76C56.4797 14.82 56.7597 14.87 57.0297 14.91C57.2553 14.9608 57.4563 15.0882 57.5985 15.2705C57.7407 15.4529 57.8153 15.6788 57.8097 15.91L57.8997 19ZM51.9997 2C51.7697 2 51.5297 2 51.2997 2C51.0345 2.02254 50.7891 2.14952 50.6175 2.353C50.4459 2.55647 50.3621 2.81978 50.3847 3.085C50.4072 3.35022 50.5342 3.59562 50.7377 3.76721C50.9412 3.93881 51.2045 4.02254 51.4697 4H51.9997C53.591 4 55.1171 4.63214 56.2423 5.75736C57.3675 6.88258 57.9997 8.4087 57.9997 10C57.9997 10.18 57.9997 10.35 57.9997 10.53C57.9775 10.7938 58.0609 11.0556 58.2314 11.2581C58.402 11.4606 58.6459 11.5871 58.9097 11.61H58.9897C59.24 11.611 59.4816 11.5181 59.6668 11.3496C59.8519 11.1811 59.9672 10.9493 59.9897 10.7C59.9897 10.47 59.9897 10.23 59.9897 10C59.9897 7.88 59.1482 5.84668 57.6501 4.34668C56.1519 2.84667 54.1197 2.00265 51.9997 2V2ZM53.9997 10C53.9997 10.2652 54.105 10.5196 54.2926 10.7071C54.4801 10.8946 54.7345 11 54.9997 11C55.2649 11 55.5193 10.8946 55.7068 10.7071C55.8943 10.5196 55.9997 10.2652 55.9997 10C55.9997 8.93913 55.5783 7.92172 54.8281 7.17157C54.078 6.42143 53.0605 6 51.9997 6C51.7345 6 51.4801 6.10536 51.2926 6.29289C51.105 6.48043 50.9997 6.73478 50.9997 7C50.9997 7.26522 51.105 7.51957 51.2926 7.70711C51.4801 7.89464 51.7345 8 51.9997 8C52.5301 8 53.0388 8.21071 53.4139 8.58579C53.789 8.96086 53.9997 9.46957 53.9997 10Z" fill="#51C14F"/>
    <defs>
        <linearGradient id="paint0_linear_262_5748" x1="107.5" y1="29" x2="107.5" y2="49" gradientUnits="userSpaceOnUse">
            <stop stop-color="#DEF7DE"/>
            <stop offset="1" stop-color="#51C14F"/>
        </linearGradient>
    </defs>
</svg>
