<svg width="197" height="67" viewBox="0 0 197 67" fill="none" xmlns="http://www.w3.org/2000/svg">
    <path d="M21.752 43.16C20.8773 43.16 20.072 43.016 19.336 42.728C18.6 42.44 17.96 42.04 17.416 41.528C16.872 41.0053 16.4507 40.3973 16.152 39.704C15.8533 39 15.704 38.232 15.704 37.4C15.704 36.568 15.8533 35.8053 16.152 35.112C16.4507 34.408 16.872 33.8 17.416 33.288C17.96 32.7653 18.6 32.36 19.336 32.072C20.072 31.784 20.872 31.64 21.736 31.64C22.6107 31.64 23.4107 31.784 24.136 32.072C24.872 32.36 25.512 32.7653 26.056 33.288C26.6 33.8 27.0213 34.408 27.32 35.112C27.6187 35.8053 27.768 36.568 27.768 37.4C27.768 38.232 27.6187 39 27.32 39.704C27.0213 40.408 26.6 41.016 26.056 41.528C25.512 42.04 24.872 42.44 24.136 42.728C23.4107 43.016 22.616 43.16 21.752 43.16ZM21.736 41.336C22.3013 41.336 22.824 41.24 23.304 41.048C23.784 40.856 24.2 40.584 24.552 40.232C24.904 39.8693 25.176 39.4533 25.368 38.984C25.5707 38.504 25.672 37.976 25.672 37.4C25.672 36.824 25.5707 36.3013 25.368 35.832C25.176 35.352 24.904 34.936 24.552 34.584C24.2 34.2213 23.784 33.944 23.304 33.752C22.824 33.56 22.3013 33.464 21.736 33.464C21.1707 33.464 20.648 33.56 20.168 33.752C19.6987 33.944 19.2827 34.2213 18.92 34.584C18.568 34.936 18.2907 35.352 18.088 35.832C17.896 36.3013 17.8 36.824 17.8 37.4C17.8 37.9653 17.896 38.488 18.088 38.968C18.2907 39.448 18.568 39.8693 18.92 40.232C19.272 40.584 19.688 40.856 20.168 41.048C20.648 41.24 21.1707 41.336 21.736 41.336ZM29.9728 43V31.8H34.5808C35.5728 31.8 36.4208 31.96 37.1248 32.28C37.8394 32.6 38.3888 33.0587 38.7728 33.656C39.1568 34.2533 39.3488 34.9627 39.3488 35.784C39.3488 36.6053 39.1568 37.3147 38.7728 37.912C38.3888 38.4987 37.8394 38.952 37.1248 39.272C36.4208 39.5813 35.5728 39.736 34.5808 39.736H31.1248L32.0528 38.792V43H29.9728ZM37.3008 43L34.4688 38.936H36.6927L39.5408 43H37.3008ZM32.0528 39.016L31.1248 38.024H34.4848C35.4021 38.024 36.0901 37.8267 36.5487 37.432C37.0181 37.0373 37.2528 36.488 37.2528 35.784C37.2528 35.0693 37.0181 34.52 36.5487 34.136C36.0901 33.752 35.4021 33.56 34.4848 33.56H31.1248L32.0528 32.536V39.016ZM41.6759 43V31.8H46.5719C47.7879 31.8 48.8545 32.0347 49.7719 32.504C50.6892 32.9733 51.4039 33.624 51.9159 34.456C52.4279 35.288 52.6839 36.2693 52.6839 37.4C52.6839 38.52 52.4279 39.5013 51.9159 40.344C51.4039 41.176 50.6892 41.8267 49.7719 42.296C48.8545 42.7653 47.7879 43 46.5719 43H41.6759ZM43.7559 41.24H46.4759C47.3185 41.24 48.0439 41.08 48.6519 40.76C49.2705 40.44 49.7452 39.992 50.0759 39.416C50.4172 38.84 50.5879 38.168 50.5879 37.4C50.5879 36.6213 50.4172 35.9493 50.0759 35.384C49.7452 34.808 49.2705 34.36 48.6519 34.04C48.0439 33.72 47.3185 33.56 46.4759 33.56H43.7559V41.24ZM56.8146 36.456H62.3826V38.168H56.8146V36.456ZM56.9746 41.256H63.2946V43H54.8946V31.8H63.0706V33.544H56.9746V41.256ZM65.6134 43V31.8H70.2214C71.2134 31.8 72.0614 31.96 72.7654 32.28C73.48 32.6 74.0294 33.0587 74.4134 33.656C74.7974 34.2533 74.9894 34.9627 74.9894 35.784C74.9894 36.6053 74.7974 37.3147 74.4134 37.912C74.0294 38.4987 73.48 38.952 72.7654 39.272C72.0614 39.5813 71.2134 39.736 70.2214 39.736H66.7654L67.6934 38.792V43H65.6134ZM72.9414 43L70.1094 38.936H72.3334L75.1814 43H72.9414ZM67.6934 39.016L66.7654 38.024H70.1254C71.0427 38.024 71.7307 37.8267 72.1894 37.432C72.6587 37.0373 72.8934 36.488 72.8934 35.784C72.8934 35.0693 72.6587 34.52 72.1894 34.136C71.7307 33.752 71.0427 33.56 70.1254 33.56H66.7654L67.6934 32.536V39.016ZM80.1544 43L85.1944 31.8H87.2424L92.2984 43H90.1224L85.7864 32.904H86.6184L82.2984 43H80.1544ZM82.4744 40.408L83.0344 38.776H89.0824L89.6424 40.408H82.4744ZM100.049 36.952H105.633V38.712H100.049V36.952ZM100.225 43H98.1446V31.8H106.321V33.544H100.225V43ZM108.332 43V31.8H112.94C113.932 31.8 114.78 31.96 115.484 32.28C116.199 32.6 116.748 33.0587 117.132 33.656C117.516 34.2533 117.708 34.9627 117.708 35.784C117.708 36.6053 117.516 37.3147 117.132 37.912C116.748 38.4987 116.199 38.952 115.484 39.272C114.78 39.5813 113.932 39.736 112.94 39.736H109.484L110.412 38.792V43H108.332ZM115.66 43L112.828 38.936H115.052L117.9 43H115.66ZM110.412 39.016L109.484 38.024H112.844C113.761 38.024 114.449 37.8267 114.908 37.432C115.377 37.0373 115.612 36.488 115.612 35.784C115.612 35.0693 115.377 34.52 114.908 34.136C114.449 33.752 113.761 33.56 112.844 33.56H109.484L110.412 32.536V39.016ZM121.955 36.456H127.523V38.168H121.955V36.456ZM122.115 41.256H128.435V43H120.035V31.8H128.211V33.544H122.115V41.256ZM132.674 36.456H138.242V38.168H132.674V36.456ZM132.834 41.256H139.154V43H130.754V31.8H138.93V33.544H132.834V41.256ZM144.311 43L149.351 31.8H151.399L156.455 43H154.279L149.943 32.904H150.775L146.455 43H144.311ZM146.631 40.408L147.191 38.776H153.239L153.799 40.408H146.631ZM162.461 43.16C160.925 43.16 159.719 42.728 158.845 41.864C157.981 41 157.549 39.752 157.549 38.12V31.8H159.629V38.04C159.629 39.192 159.874 40.0293 160.365 40.552C160.866 41.0747 161.57 41.336 162.477 41.336C163.383 41.336 164.082 41.0747 164.573 40.552C165.063 40.0293 165.309 39.192 165.309 38.04V31.8H167.357V38.12C167.357 39.752 166.919 41 166.045 41.864C165.181 42.728 163.986 43.16 162.461 43.16ZM170.27 43V31.8H175.166C176.382 31.8 177.448 32.0347 178.366 32.504C179.283 32.9733 179.998 33.624 180.51 34.456C181.022 35.288 181.278 36.2693 181.278 37.4C181.278 38.52 181.022 39.5013 180.51 40.344C179.998 41.176 179.283 41.8267 178.366 42.296C177.448 42.7653 176.382 43 175.166 43H170.27ZM172.35 41.24H175.07C175.912 41.24 176.638 41.08 177.246 40.76C177.864 40.44 178.339 39.992 178.67 39.416C179.011 38.84 179.182 38.168 179.182 37.4C179.182 36.6213 179.011 35.9493 178.67 35.384C178.339 34.808 177.864 34.36 177.246 34.04C176.638 33.72 175.912 33.56 175.07 33.56H172.35V41.24ZM183.488 43V31.8H185.568V43H183.488ZM190.87 43V33.56H187.158V31.8H196.662V33.56H192.95V43H190.87Z" fill="url(#paint0_linear_262_5752)"/>
    <path d="M23.1 12H15C7.26801 12 1 18.268 1 26V52C1 59.732 7.26801 66 15 66H159.25C165.739 66 171 60.7393 171 54.25V54.25M77.925 12H158.8C165.538 12 171 17.4621 171 24.2V24.2" stroke="#51C14F" stroke-width="2" stroke-linecap="round"/>
    <path d="M48 10H49C49.2652 10 49.5196 9.89464 49.7071 9.70711C49.8946 9.51957 50 9.26522 50 9C50 8.73478 49.8946 8.48043 49.7071 8.29289C49.5196 8.10536 49.2652 8 49 8H48C47.7348 8 47.4804 8.10536 47.2929 8.29289C47.1054 8.48043 47 8.73478 47 9C47 9.26522 47.1054 9.51957 47.2929 9.70711C47.4804 9.89464 47.7348 10 48 10ZM54 12H48C47.7348 12 47.4804 12.1054 47.2929 12.2929C47.1054 12.4804 47 12.7348 47 13C47 13.2652 47.1054 13.5196 47.2929 13.7071C47.4804 13.8946 47.7348 14 48 14H54C54.2652 14 54.5196 13.8946 54.7071 13.7071C54.8946 13.5196 55 13.2652 55 13C55 12.7348 54.8946 12.4804 54.7071 12.2929C54.5196 12.1054 54.2652 12 54 12ZM54 16H48C47.7348 16 47.4804 16.1054 47.2929 16.2929C47.1054 16.4804 47 16.7348 47 17C47 17.2652 47.1054 17.5196 47.2929 17.7071C47.4804 17.8946 47.7348 18 48 18H54C54.2652 18 54.5196 17.8946 54.7071 17.7071C54.8946 17.5196 55 17.2652 55 17C55 16.7348 54.8946 16.4804 54.7071 16.2929C54.5196 16.1054 54.2652 16 54 16ZM58.71 20.29C58.6625 20.247 58.6124 20.2069 58.56 20.17C58.5043 20.1322 58.4437 20.1019 58.38 20.08L58.2 20C58.005 19.9619 57.8031 19.9828 57.62 20.06C57.4959 20.1049 57.3832 20.1766 57.2899 20.2699C57.1966 20.3632 57.1249 20.4759 57.08 20.6C57.0209 20.7247 56.9934 20.8621 57 21C56.9983 21.1488 57.0297 21.296 57.0921 21.4311C57.1545 21.5662 57.2462 21.6856 57.3606 21.7807C57.475 21.8758 57.6092 21.9442 57.7534 21.9809C57.8976 22.0176 58.0481 22.0216 58.1941 21.9927C58.34 21.9638 58.4777 21.9028 58.597 21.8139C58.7164 21.7251 58.8144 21.6107 58.8839 21.4792C58.9535 21.3477 58.9928 21.2023 58.9991 21.0537C59.0053 20.905 58.9783 20.7569 58.92 20.62C58.8694 20.4988 58.7983 20.3872 58.71 20.29ZM59 8.94C58.9896 8.84813 58.9695 8.75763 58.94 8.67V8.58C58.8919 8.47718 58.8278 8.38267 58.75 8.3L52.75 2.3C52.6673 2.22222 52.5728 2.15808 52.47 2.11C52.4402 2.10576 52.4099 2.10576 52.38 2.11C52.2784 2.05174 52.1662 2.01434 52.05 2H46C45.2044 2 44.4413 2.31607 43.8787 2.87868C43.3161 3.44129 43 4.20435 43 5V19C43 19.7956 43.3161 20.5587 43.8787 21.1213C44.4413 21.6839 45.2044 22 46 22H54C54.2652 22 54.5196 21.8946 54.7071 21.7071C54.8946 21.5196 55 21.2652 55 21C55 20.7348 54.8946 20.4804 54.7071 20.2929C54.5196 20.1054 54.2652 20 54 20H46C45.7348 20 45.4804 19.8946 45.2929 19.7071C45.1054 19.5196 45 19.2652 45 19V5C45 4.73478 45.1054 4.48043 45.2929 4.29289C45.4804 4.10536 45.7348 4 46 4H51V7C51 7.79565 51.3161 8.55871 51.8787 9.12132C52.4413 9.68393 53.2044 10 54 10H57V12C57 12.2652 57.1054 12.5196 57.2929 12.7071C57.4804 12.8946 57.7348 13 58 13C58.2652 13 58.5196 12.8946 58.7071 12.7071C58.8946 12.5196 59 12.2652 59 12V9C59 9 59 9 59 8.94ZM54 8C53.7348 8 53.4804 7.89464 53.2929 7.70711C53.1054 7.51957 53 7.26522 53 7V5.41L55.59 8H54ZM58 15C57.7348 15 57.4804 15.1054 57.2929 15.2929C57.1054 15.4804 57 15.7348 57 16V18C57 18.2652 57.1054 18.5196 57.2929 18.7071C57.4804 18.8946 57.7348 19 58 19C58.2652 19 58.5196 18.8946 58.7071 18.7071C58.8946 18.5196 59 18.2652 59 18V16C59 15.7348 58.8946 15.4804 58.7071 15.2929C58.5196 15.1054 58.2652 15 58 15Z" fill="#51C14F"/>
    <defs>
        <linearGradient id="paint0_linear_262_5752" x1="106" y1="27" x2="106" y2="47" gradientUnits="userSpaceOnUse">
            <stop stop-color="#DEF7DE"/>
            <stop offset="1" stop-color="#51C14F"/>
        </linearGradient>
    </defs>
</svg>
