<svg width="34" height="34" viewBox="0 0 34 34" fill="none" xmlns="http://www.w3.org/2000/svg">
    <path d="M28.4491 13.6381L9.39353 4.11037C8.64151 3.73608 7.79235 3.60283 6.96182 3.72879C6.13129 3.85475 5.35983 4.23378 4.7526 4.81422C4.14537 5.39466 3.73193 6.14826 3.56865 6.97226C3.40537 7.79626 3.5002 8.65057 3.8402 9.41871L7.10687 16.7279C7.18099 16.9046 7.21916 17.0943 7.21916 17.2859C7.21916 17.4776 7.18099 17.6673 7.10687 17.844L3.8402 25.1532C3.56349 25.7748 3.44651 26.4557 3.49989 27.1341C3.55328 27.8124 3.77533 28.4667 4.14588 29.0374C4.51643 29.6081 5.02372 30.0771 5.62165 30.4019C6.21959 30.7267 6.8892 30.8969 7.56965 30.897C8.20696 30.8907 8.83478 30.7419 9.40715 30.4615L28.4627 20.9337C29.1386 20.5937 29.7068 20.0725 30.1038 19.4284C30.5008 18.7843 30.711 18.0426 30.711 17.2859C30.711 16.5293 30.5008 15.7875 30.1038 15.1434C29.7068 14.4993 29.1386 13.9782 28.4627 13.6381H28.4491ZM27.2377 18.4973L8.18215 28.0251C7.93192 28.1452 7.65095 28.186 7.37689 28.1419C7.10284 28.0979 6.84881 27.9711 6.64887 27.7785C6.44893 27.586 6.31263 27.3369 6.25826 27.0647C6.20388 26.7925 6.23402 26.5102 6.34465 26.2557L9.5977 18.9465C9.63981 18.8489 9.67617 18.7489 9.70659 18.647H19.0846C19.4456 18.647 19.7918 18.5036 20.0471 18.2484C20.3024 17.9931 20.4458 17.6469 20.4458 17.2859C20.4458 16.9249 20.3024 16.5787 20.0471 16.3235C19.7918 16.0682 19.4456 15.9248 19.0846 15.9248H9.70659C9.67617 15.823 9.63981 15.723 9.5977 15.6254L6.34465 8.31621C6.23402 8.06163 6.20388 7.77931 6.25826 7.50712C6.31263 7.23492 6.44893 6.98586 6.64887 6.79332C6.84881 6.60079 7.10284 6.47398 7.37689 6.42991C7.65095 6.38584 7.93192 6.42661 8.18215 6.54676L27.2377 16.0745C27.4607 16.1888 27.6478 16.3623 27.7784 16.576C27.9091 16.7898 27.9782 17.0354 27.9782 17.2859C27.9782 17.5364 27.9091 17.7821 27.7784 17.9958C27.6478 18.2096 27.4607 18.3831 27.2377 18.4973V18.4973Z" fill="#51C14F"/>
</svg>
