<svg width="106" height="43" viewBox="0 0 106 43" fill="none" xmlns="http://www.w3.org/2000/svg">
    <path d="M16.3213 28.1C15.7747 28.1 15.2713 28.0133 14.8113 27.84C14.358 27.66 13.9613 27.41 13.6213 27.09C13.2813 26.7633 13.018 26.38 12.8313 25.94C12.6447 25.5 12.5513 25.02 12.5513 24.5C12.5513 23.98 12.6447 23.5 12.8313 23.06C13.018 22.62 13.2813 22.24 13.6213 21.92C13.968 21.5933 14.3713 21.3433 14.8313 21.17C15.2913 20.99 15.7947 20.9 16.3413 20.9C16.9347 20.9 17.468 20.9967 17.9413 21.19C18.4213 21.3833 18.8247 21.6667 19.1513 22.04L18.3313 22.84C18.058 22.5667 17.7613 22.3667 17.4413 22.24C17.128 22.1067 16.7813 22.04 16.4013 22.04C16.0347 22.04 15.6947 22.1 15.3813 22.22C15.068 22.34 14.798 22.51 14.5713 22.73C14.3447 22.95 14.168 23.21 14.0413 23.51C13.9213 23.81 13.8613 24.14 13.8613 24.5C13.8613 24.8533 13.9213 25.18 14.0413 25.48C14.168 25.78 14.3447 26.0433 14.5713 26.27C14.798 26.49 15.0647 26.66 15.3713 26.78C15.678 26.9 16.018 26.96 16.3913 26.96C16.738 26.96 17.0713 26.9067 17.3913 26.8C17.718 26.6867 18.028 26.5 18.3213 26.24L19.0613 27.21C18.6947 27.5033 18.268 27.7267 17.7813 27.88C17.3013 28.0267 16.8147 28.1 16.3213 28.1ZM17.8313 27.04V24.42H19.0613V27.21L17.8313 27.04ZM24.0559 28.1C23.5093 28.1 23.0059 28.01 22.5459 27.83C22.0859 27.65 21.6859 27.4 21.3459 27.08C21.0059 26.7533 20.7426 26.3733 20.5559 25.94C20.3693 25.5 20.2759 25.02 20.2759 24.5C20.2759 23.98 20.3693 23.5033 20.5559 23.07C20.7426 22.63 21.0059 22.25 21.3459 21.93C21.6859 21.6033 22.0859 21.35 22.5459 21.17C23.0059 20.99 23.5059 20.9 24.0459 20.9C24.5926 20.9 25.0926 20.99 25.5459 21.17C26.0059 21.35 26.4059 21.6033 26.7459 21.93C27.0859 22.25 27.3493 22.63 27.5359 23.07C27.7226 23.5033 27.8159 23.98 27.8159 24.5C27.8159 25.02 27.7226 25.5 27.5359 25.94C27.3493 26.38 27.0859 26.76 26.7459 27.08C26.4059 27.4 26.0059 27.65 25.5459 27.83C25.0926 28.01 24.5959 28.1 24.0559 28.1ZM24.0459 26.96C24.3993 26.96 24.7259 26.9 25.0259 26.78C25.3259 26.66 25.5859 26.49 25.8059 26.27C26.0259 26.0433 26.1959 25.7833 26.3159 25.49C26.4426 25.19 26.5059 24.86 26.5059 24.5C26.5059 24.14 26.4426 23.8133 26.3159 23.52C26.1959 23.22 26.0259 22.96 25.8059 22.74C25.5859 22.5133 25.3259 22.34 25.0259 22.22C24.7259 22.1 24.3993 22.04 24.0459 22.04C23.6926 22.04 23.3659 22.1 23.0659 22.22C22.7726 22.34 22.5126 22.5133 22.2859 22.74C22.0659 22.96 21.8926 23.22 21.7659 23.52C21.6459 23.8133 21.5859 24.14 21.5859 24.5C21.5859 24.8533 21.6459 25.18 21.7659 25.48C21.8926 25.78 22.0659 26.0433 22.2859 26.27C22.5059 26.49 22.7659 26.66 23.0659 26.78C23.3659 26.9 23.6926 26.96 24.0459 26.96ZM33.3776 28V22.1H31.0576V21H36.9976V22.1H34.6776V28H33.3776ZM41.1555 28.1C40.6089 28.1 40.1055 28.01 39.6455 27.83C39.1855 27.65 38.7855 27.4 38.4455 27.08C38.1055 26.7533 37.8422 26.3733 37.6555 25.94C37.4689 25.5 37.3755 25.02 37.3755 24.5C37.3755 23.98 37.4689 23.5033 37.6555 23.07C37.8422 22.63 38.1055 22.25 38.4455 21.93C38.7855 21.6033 39.1855 21.35 39.6455 21.17C40.1055 20.99 40.6055 20.9 41.1455 20.9C41.6922 20.9 42.1922 20.99 42.6455 21.17C43.1055 21.35 43.5055 21.6033 43.8455 21.93C44.1855 22.25 44.4489 22.63 44.6355 23.07C44.8222 23.5033 44.9155 23.98 44.9155 24.5C44.9155 25.02 44.8222 25.5 44.6355 25.94C44.4489 26.38 44.1855 26.76 43.8455 27.08C43.5055 27.4 43.1055 27.65 42.6455 27.83C42.1922 28.01 41.6955 28.1 41.1555 28.1ZM41.1455 26.96C41.4989 26.96 41.8255 26.9 42.1255 26.78C42.4255 26.66 42.6855 26.49 42.9055 26.27C43.1255 26.0433 43.2955 25.7833 43.4155 25.49C43.5422 25.19 43.6055 24.86 43.6055 24.5C43.6055 24.14 43.5422 23.8133 43.4155 23.52C43.2955 23.22 43.1255 22.96 42.9055 22.74C42.6855 22.5133 42.4255 22.34 42.1255 22.22C41.8255 22.1 41.4989 22.04 41.1455 22.04C40.7922 22.04 40.4655 22.1 40.1655 22.22C39.8722 22.34 39.6122 22.5133 39.3855 22.74C39.1655 22.96 38.9922 23.22 38.8655 23.52C38.7455 23.8133 38.6855 24.14 38.6855 24.5C38.6855 24.8533 38.7455 25.18 38.8655 25.48C38.9922 25.78 39.1655 26.0433 39.3855 26.27C39.6055 26.49 39.8655 26.66 40.1655 26.78C40.4655 26.9 40.7922 26.96 41.1455 26.96ZM50.4772 28V22.1H48.1572V21H54.0972V22.1H51.7772V28H50.4772ZM59.9928 21H61.2928V28H59.9928V21ZM56.3728 28H55.0728V21H56.3728V28ZM60.0928 25H56.2628V23.89H60.0928V25ZM64.3685 23.91H67.8485V24.98H64.3685V23.91ZM64.4685 26.91H68.4185V28H63.1685V21H68.2785V22.09H64.4685V26.91ZM74.8014 28.1C74.2547 28.1 73.7314 28.0233 73.2314 27.87C72.7314 27.71 72.3347 27.5067 72.0414 27.26L72.4914 26.25C72.7714 26.47 73.1181 26.6533 73.5314 26.8C73.9447 26.9467 74.3681 27.02 74.8014 27.02C75.1681 27.02 75.4647 26.98 75.6914 26.9C75.9181 26.82 76.0847 26.7133 76.1914 26.58C76.2981 26.44 76.3514 26.2833 76.3514 26.11C76.3514 25.8967 76.2747 25.7267 76.1214 25.6C75.9681 25.4667 75.7681 25.3633 75.5214 25.29C75.2814 25.21 75.0114 25.1367 74.7114 25.07C74.4181 25.0033 74.1214 24.9267 73.8214 24.84C73.5281 24.7467 73.2581 24.63 73.0114 24.49C72.7714 24.3433 72.5747 24.15 72.4214 23.91C72.2681 23.67 72.1914 23.3633 72.1914 22.99C72.1914 22.61 72.2914 22.2633 72.4914 21.95C72.6981 21.63 73.0081 21.3767 73.4214 21.19C73.8414 20.9967 74.3714 20.9 75.0114 20.9C75.4314 20.9 75.8481 20.9533 76.2614 21.06C76.6747 21.1667 77.0347 21.32 77.3414 21.52L76.9314 22.53C76.6181 22.3433 76.2947 22.2067 75.9614 22.12C75.6281 22.0267 75.3081 21.98 75.0014 21.98C74.6414 21.98 74.3481 22.0233 74.1214 22.11C73.9014 22.1967 73.7381 22.31 73.6314 22.45C73.5314 22.59 73.4814 22.75 73.4814 22.93C73.4814 23.1433 73.5547 23.3167 73.7014 23.45C73.8547 23.5767 74.0514 23.6767 74.2914 23.75C74.5381 23.8233 74.8114 23.8967 75.1114 23.97C75.4114 24.0367 75.7081 24.1133 76.0014 24.2C76.3014 24.2867 76.5714 24.4 76.8114 24.54C77.0581 24.68 77.2547 24.87 77.4014 25.11C77.5547 25.35 77.6314 25.6533 77.6314 26.02C77.6314 26.3933 77.5281 26.74 77.3214 27.06C77.1214 27.3733 76.8114 27.6267 76.3914 27.82C75.9714 28.0067 75.4414 28.1 74.8014 28.1ZM78.9205 28V21H80.2205V28H78.9205ZM83.5338 28V22.1H81.2138V21H87.1538V22.1H84.8338V28H83.5338ZM89.3295 23.91H92.8095V24.98H89.3295V23.91ZM89.4295 26.91H93.3795V28H88.1295V21H93.2395V22.09H89.4295V26.91Z" fill="#EFF7F4"/>
    <path d="M14.7143 7H10.8933C5.4294 7 1 11.4294 1 16.8933V32.1067C1 37.5706 5.42939 42 10.8933 42H95.1067C100.571 42 105 37.5706 105 32.1067V16.8933C105 11.4294 100.571 7 95.1067 7H46.1429" stroke="#EFF7F4" stroke-width="1.41333" stroke-linecap="round"/>
    <g clip-path="url(#clip0_275_1718)">
        <path d="M29.351 2.6249C29.2471 2.6249 29.1456 2.65569 29.0593 2.71338C28.973 2.77107 28.9057 2.85306 28.8659 2.94899C28.8262 3.04492 28.8158 3.15048 28.8361 3.25232C28.8563 3.35416 28.9063 3.44771 28.9797 3.52113C29.0532 3.59456 29.1467 3.64456 29.2486 3.66481C29.3504 3.68507 29.456 3.67468 29.5519 3.63494C29.6478 3.5952 29.7298 3.52791 29.7875 3.44158C29.8452 3.35524 29.876 3.25374 29.876 3.1499C29.876 3.01066 29.8207 2.87713 29.7222 2.77867C29.6238 2.68021 29.4902 2.6249 29.351 2.6249ZM27.251 2.6249C27.1471 2.6249 27.0456 2.65569 26.9593 2.71338C26.873 2.77107 26.8057 2.85306 26.7659 2.94899C26.7262 3.04492 26.7158 3.15048 26.7361 3.25232C26.7563 3.35416 26.8063 3.44771 26.8797 3.52113C26.9532 3.59456 27.0467 3.64456 27.1486 3.66481C27.2504 3.68507 27.356 3.67468 27.4519 3.63494C27.5478 3.5952 27.6298 3.52791 27.6875 3.44158C27.7452 3.35524 27.776 3.25374 27.776 3.1499C27.776 3.01066 27.7207 2.87713 27.6222 2.77867C27.5238 2.68021 27.3902 2.6249 27.251 2.6249ZM31.451 2.6249C31.3471 2.6249 31.2456 2.65569 31.1593 2.71338C31.073 2.77107 31.0057 2.85306 30.9659 2.94899C30.9262 3.04492 30.9158 3.15048 30.9361 3.25232C30.9563 3.35416 31.0063 3.44771 31.0797 3.52113C31.1532 3.59456 31.2467 3.64456 31.3486 3.66481C31.4504 3.68507 31.556 3.67468 31.6519 3.63494C31.7478 3.5952 31.8298 3.52791 31.8875 3.44158C31.9452 3.35524 31.976 3.25374 31.976 3.1499C31.976 3.01066 31.9207 2.87713 31.8222 2.77867C31.7238 2.68021 31.5902 2.6249 31.451 2.6249ZM34.601 0.524902H26.201C25.7833 0.524902 25.3827 0.690839 25.0873 0.986209C24.7919 1.28158 24.626 1.68219 24.626 2.0999V10.4999C24.626 10.9176 24.7919 11.3182 25.0873 11.6136C25.3827 11.909 25.7833 12.0749 26.201 12.0749H34.601C35.0187 12.0749 35.4193 11.909 35.7147 11.6136C36.01 11.3182 36.176 10.9176 36.176 10.4999V2.0999C36.176 1.68219 36.01 1.28158 35.7147 0.986209C35.4193 0.690839 35.0187 0.524902 34.601 0.524902V0.524902ZM35.126 10.4999C35.126 10.6391 35.0707 10.7727 34.9722 10.8711C34.8738 10.9696 34.7402 11.0249 34.601 11.0249H26.201C26.0617 11.0249 25.9282 10.9696 25.8297 10.8711C25.7313 10.7727 25.676 10.6391 25.676 10.4999V5.7749H35.126V10.4999ZM35.126 4.7249H25.676V2.0999C25.676 1.96066 25.7313 1.82713 25.8297 1.72867C25.9282 1.63021 26.0617 1.5749 26.201 1.5749H34.601C34.7402 1.5749 34.8738 1.63021 34.9722 1.72867C35.0707 1.82713 35.126 1.96066 35.126 2.0999V4.7249Z" fill="#51C14F"/>
    </g>
    <defs>
        <clipPath id="clip0_275_1718">
            <rect width="12.6" height="12.6" fill="white" transform="translate(24.1006)"/>
        </clipPath>
    </defs>
</svg>
