<svg width="13" height="13" viewBox="0 0 13 13" fill="none" xmlns="http://www.w3.org/2000/svg">
    <g clip-path="url(#clip0_275_1721)">
        <path d="M5.35098 2.6249C5.24714 2.6249 5.14564 2.65569 5.0593 2.71338C4.97297 2.77107 4.90568 2.85306 4.86594 2.94899C4.8262 3.04492 4.81581 3.15048 4.83606 3.25232C4.85632 3.35416 4.90632 3.44771 4.97975 3.52113C5.05317 3.59456 5.14671 3.64456 5.24855 3.66481C5.35039 3.68507 5.45595 3.67467 5.55189 3.63494C5.64782 3.5952 5.72981 3.52791 5.7875 3.44158C5.84519 3.35524 5.87598 3.25374 5.87598 3.1499C5.87598 3.01066 5.82066 2.87713 5.72221 2.77867C5.62375 2.68021 5.49022 2.6249 5.35098 2.6249ZM3.25098 2.6249C3.14714 2.6249 3.04564 2.65569 2.9593 2.71338C2.87297 2.77107 2.80568 2.85306 2.76594 2.94899C2.7262 3.04492 2.71581 3.15048 2.73606 3.25232C2.75632 3.35416 2.80632 3.44771 2.87975 3.52113C2.95317 3.59456 3.04671 3.64456 3.14855 3.66481C3.25039 3.68507 3.35595 3.67467 3.45189 3.63494C3.54782 3.5952 3.62981 3.52791 3.6875 3.44158C3.74519 3.35524 3.77598 3.25374 3.77598 3.1499C3.77598 3.01066 3.72066 2.87713 3.62221 2.77867C3.52375 2.68021 3.39022 2.6249 3.25098 2.6249ZM7.45098 2.6249C7.34714 2.6249 7.24564 2.65569 7.1593 2.71338C7.07297 2.77107 7.00568 2.85306 6.96594 2.94899C6.9262 3.04492 6.91581 3.15048 6.93606 3.25232C6.95632 3.35416 7.00632 3.44771 7.07975 3.52113C7.15317 3.59456 7.24671 3.64456 7.34855 3.66481C7.45039 3.68507 7.55595 3.67467 7.65189 3.63494C7.74782 3.5952 7.82981 3.52791 7.8875 3.44158C7.94519 3.35524 7.97598 3.25374 7.97598 3.1499C7.97598 3.01066 7.92066 2.87713 7.82221 2.77867C7.72375 2.68021 7.59022 2.6249 7.45098 2.6249ZM10.601 0.524902H2.20098C1.78326 0.524902 1.38265 0.690839 1.08728 0.986209C0.791914 1.28158 0.625977 1.68219 0.625977 2.0999V10.4999C0.625977 10.9176 0.791914 11.3182 1.08728 11.6136C1.38265 11.909 1.78326 12.0749 2.20098 12.0749H10.601C11.0187 12.0749 11.4193 11.909 11.7147 11.6136C12.01 11.3182 12.176 10.9176 12.176 10.4999V2.0999C12.176 1.68219 12.01 1.28158 11.7147 0.986209C11.4193 0.690839 11.0187 0.524902 10.601 0.524902ZM11.126 10.4999C11.126 10.6391 11.0707 10.7727 10.9722 10.8711C10.8738 10.9696 10.7402 11.0249 10.601 11.0249H2.20098C2.06174 11.0249 1.9282 10.9696 1.82975 10.8711C1.73129 10.7727 1.67598 10.6391 1.67598 10.4999V5.7749H11.126V10.4999ZM11.126 4.7249H1.67598V2.0999C1.67598 1.96066 1.73129 1.82713 1.82975 1.72867C1.9282 1.63021 2.06174 1.5749 2.20098 1.5749H10.601C10.7402 1.5749 10.8738 1.63021 10.9722 1.72867C11.0707 1.82713 11.126 1.96066 11.126 2.0999V4.7249Z" fill="#51C14F"/>
    </g>
    <defs>
        <clipPath id="clip0_275_1721">
            <rect width="12.6" height="12.6" fill="white" transform="translate(0.100586)"/>
        </clipPath>
    </defs>
</svg>
